<mxfile host="app.diagrams.net" agent="Mozilla/5.0 (Windows NT 10.0; Win64; x64) AppleWebKit/537.36 (KHTML, like Gecko) Chrome/131.0.0.0 Safari/537.36" version="26.0.6">
  <diagram name="페이지-1" id="a91h9PELK2qOmPTpo6f0">
    <mxGraphModel dx="792" dy="772" grid="1" gridSize="10" guides="1" tooltips="1" connect="1" arrows="1" fold="1" page="1" pageScale="1" pageWidth="827" pageHeight="1169" math="0" shadow="0">
      <root>
        <mxCell id="0" />
        <mxCell id="1" parent="0" />
        <mxCell id="w6aNMnVi-DuYVkLQ420d-1" value="회원" style="rounded=0;whiteSpace=wrap;html=1;" parent="1" vertex="1">
          <mxGeometry x="20" y="340" width="120" height="60" as="geometry" />
        </mxCell>
        <mxCell id="w6aNMnVi-DuYVkLQ420d-2" value="게시판" style="rounded=0;whiteSpace=wrap;html=1;" parent="1" vertex="1">
          <mxGeometry x="300" y="340" width="120" height="60" as="geometry" />
        </mxCell>
        <mxCell id="w6aNMnVi-DuYVkLQ420d-3" value="이미지파일" style="rounded=0;whiteSpace=wrap;html=1;" parent="1" vertex="1">
          <mxGeometry x="510" y="410" width="120" height="60" as="geometry" />
        </mxCell>
        <mxCell id="w6aNMnVi-DuYVkLQ420d-4" value="첨부파일" style="rounded=0;whiteSpace=wrap;html=1;" parent="1" vertex="1">
          <mxGeometry x="510" y="270" width="120" height="60" as="geometry" />
        </mxCell>
        <mxCell id="w6aNMnVi-DuYVkLQ420d-7" value="" style="edgeStyle=entityRelationEdgeStyle;fontSize=12;html=1;endArrow=ERone;endFill=1;rounded=0;entryX=0;entryY=0.5;entryDx=0;entryDy=0;exitX=1;exitY=0.5;exitDx=0;exitDy=0;" parent="1" source="w6aNMnVi-DuYVkLQ420d-2" target="w6aNMnVi-DuYVkLQ420d-4" edge="1">
          <mxGeometry width="100" height="100" relative="1" as="geometry">
            <mxPoint x="360" y="620" as="sourcePoint" />
            <mxPoint x="460" y="520" as="targetPoint" />
          </mxGeometry>
        </mxCell>
        <mxCell id="w6aNMnVi-DuYVkLQ420d-11" value="" style="edgeStyle=entityRelationEdgeStyle;fontSize=12;html=1;endArrow=ERoneToMany;startArrow=ERmandOne;rounded=0;exitX=1;exitY=0.75;exitDx=0;exitDy=0;entryX=0;entryY=0.75;entryDx=0;entryDy=0;" parent="1" source="w6aNMnVi-DuYVkLQ420d-1" target="w6aNMnVi-DuYVkLQ420d-2" edge="1">
          <mxGeometry width="100" height="100" relative="1" as="geometry">
            <mxPoint x="220" y="380" as="sourcePoint" />
            <mxPoint x="460" y="520" as="targetPoint" />
          </mxGeometry>
        </mxCell>
        <mxCell id="w6aNMnVi-DuYVkLQ420d-12" value="" style="edgeStyle=entityRelationEdgeStyle;fontSize=12;html=1;endArrow=ERoneToMany;startArrow=ERmandOne;rounded=0;exitX=1;exitY=0.5;exitDx=0;exitDy=0;entryX=0;entryY=0.5;entryDx=0;entryDy=0;" parent="1" source="w6aNMnVi-DuYVkLQ420d-2" target="w6aNMnVi-DuYVkLQ420d-3" edge="1">
          <mxGeometry width="100" height="100" relative="1" as="geometry">
            <mxPoint x="360" y="620" as="sourcePoint" />
            <mxPoint x="460" y="520" as="targetPoint" />
          </mxGeometry>
        </mxCell>
        <mxCell id="w6aNMnVi-DuYVkLQ420d-13" value="업로드&lt;div&gt;&amp;nbsp;이름&lt;/div&gt;" style="ellipse;whiteSpace=wrap;html=1;aspect=fixed;" parent="1" vertex="1">
          <mxGeometry x="545" y="500" width="50" height="50" as="geometry" />
        </mxCell>
        <mxCell id="w6aNMnVi-DuYVkLQ420d-14" value="파일&lt;div&gt;&amp;nbsp;저장&amp;nbsp;&lt;/div&gt;&lt;div&gt;이름&lt;/div&gt;" style="ellipse;whiteSpace=wrap;html=1;aspect=fixed;" parent="1" vertex="1">
          <mxGeometry x="595" y="500" width="50" height="50" as="geometry" />
        </mxCell>
        <mxCell id="w6aNMnVi-DuYVkLQ420d-15" value="" style="endArrow=none;html=1;rounded=0;entryX=0.5;entryY=0;entryDx=0;entryDy=0;exitX=0.5;exitY=1;exitDx=0;exitDy=0;" parent="1" source="w6aNMnVi-DuYVkLQ420d-3" target="w6aNMnVi-DuYVkLQ420d-13" edge="1">
          <mxGeometry width="50" height="50" relative="1" as="geometry">
            <mxPoint x="390" y="600" as="sourcePoint" />
            <mxPoint x="440" y="550" as="targetPoint" />
          </mxGeometry>
        </mxCell>
        <mxCell id="w6aNMnVi-DuYVkLQ420d-16" value="" style="endArrow=none;html=1;rounded=0;entryX=0.5;entryY=0;entryDx=0;entryDy=0;exitX=0.5;exitY=1;exitDx=0;exitDy=0;" parent="1" source="w6aNMnVi-DuYVkLQ420d-3" target="w6aNMnVi-DuYVkLQ420d-14" edge="1">
          <mxGeometry width="50" height="50" relative="1" as="geometry">
            <mxPoint x="580" y="480" as="sourcePoint" />
            <mxPoint x="555" y="510" as="targetPoint" />
          </mxGeometry>
        </mxCell>
        <mxCell id="w6aNMnVi-DuYVkLQ420d-17" value="업로드&lt;div&gt;&amp;nbsp;이름&lt;/div&gt;" style="ellipse;whiteSpace=wrap;html=1;aspect=fixed;" parent="1" vertex="1">
          <mxGeometry x="540" y="350" width="50" height="50" as="geometry" />
        </mxCell>
        <mxCell id="w6aNMnVi-DuYVkLQ420d-18" value="파일&lt;div&gt;&amp;nbsp;저장&amp;nbsp;&lt;/div&gt;&lt;div&gt;이름&lt;/div&gt;" style="ellipse;whiteSpace=wrap;html=1;aspect=fixed;" parent="1" vertex="1">
          <mxGeometry x="590" y="350" width="50" height="50" as="geometry" />
        </mxCell>
        <mxCell id="w6aNMnVi-DuYVkLQ420d-19" value="" style="endArrow=none;html=1;rounded=0;exitX=0.5;exitY=1;exitDx=0;exitDy=0;entryX=0.5;entryY=0;entryDx=0;entryDy=0;" parent="1" source="w6aNMnVi-DuYVkLQ420d-4" target="w6aNMnVi-DuYVkLQ420d-18" edge="1">
          <mxGeometry width="50" height="50" relative="1" as="geometry">
            <mxPoint x="620" y="350" as="sourcePoint" />
            <mxPoint x="670" y="360" as="targetPoint" />
          </mxGeometry>
        </mxCell>
        <mxCell id="w6aNMnVi-DuYVkLQ420d-20" value="" style="endArrow=none;html=1;rounded=0;exitX=0.5;exitY=1;exitDx=0;exitDy=0;entryX=0.5;entryY=0;entryDx=0;entryDy=0;" parent="1" source="w6aNMnVi-DuYVkLQ420d-4" target="w6aNMnVi-DuYVkLQ420d-17" edge="1">
          <mxGeometry width="50" height="50" relative="1" as="geometry">
            <mxPoint x="580" y="340" as="sourcePoint" />
            <mxPoint x="605" y="360" as="targetPoint" />
          </mxGeometry>
        </mxCell>
        <mxCell id="w6aNMnVi-DuYVkLQ420d-21" value="&lt;u&gt;게시판&lt;/u&gt;&lt;div&gt;&lt;u&gt;번호&lt;/u&gt;&lt;/div&gt;" style="ellipse;whiteSpace=wrap;html=1;" parent="1" vertex="1">
          <mxGeometry x="280" y="460" width="50" height="50" as="geometry" />
        </mxCell>
        <mxCell id="w6aNMnVi-DuYVkLQ420d-22" value="게시글&lt;div&gt;제목&lt;/div&gt;" style="ellipse;whiteSpace=wrap;html=1;" parent="1" vertex="1">
          <mxGeometry x="330" y="460" width="50" height="50" as="geometry" />
        </mxCell>
        <mxCell id="w6aNMnVi-DuYVkLQ420d-23" value="게시글&lt;div&gt;본문&lt;/div&gt;" style="ellipse;whiteSpace=wrap;html=1;" parent="1" vertex="1">
          <mxGeometry x="380" y="460" width="50" height="50" as="geometry" />
        </mxCell>
        <mxCell id="w6aNMnVi-DuYVkLQ420d-24" value="조회수" style="ellipse;whiteSpace=wrap;html=1;" parent="1" vertex="1">
          <mxGeometry x="280" y="510" width="50" height="50" as="geometry" />
        </mxCell>
        <mxCell id="w6aNMnVi-DuYVkLQ420d-25" value="" style="endArrow=none;html=1;rounded=0;exitX=0.5;exitY=0;exitDx=0;exitDy=0;entryX=0.5;entryY=1;entryDx=0;entryDy=0;" parent="1" source="w6aNMnVi-DuYVkLQ420d-21" target="w6aNMnVi-DuYVkLQ420d-2" edge="1">
          <mxGeometry width="50" height="50" relative="1" as="geometry">
            <mxPoint x="390" y="510" as="sourcePoint" />
            <mxPoint x="440" y="460" as="targetPoint" />
          </mxGeometry>
        </mxCell>
        <mxCell id="w6aNMnVi-DuYVkLQ420d-26" value="" style="endArrow=none;html=1;rounded=0;exitX=0.5;exitY=0;exitDx=0;exitDy=0;entryX=0.5;entryY=1;entryDx=0;entryDy=0;" parent="1" source="w6aNMnVi-DuYVkLQ420d-22" target="w6aNMnVi-DuYVkLQ420d-2" edge="1">
          <mxGeometry width="50" height="50" relative="1" as="geometry">
            <mxPoint x="289" y="470" as="sourcePoint" />
            <mxPoint x="364" y="410" as="targetPoint" />
          </mxGeometry>
        </mxCell>
        <mxCell id="w6aNMnVi-DuYVkLQ420d-27" value="" style="endArrow=none;html=1;rounded=0;exitX=0.5;exitY=0;exitDx=0;exitDy=0;entryX=0.5;entryY=1;entryDx=0;entryDy=0;" parent="1" source="w6aNMnVi-DuYVkLQ420d-23" target="w6aNMnVi-DuYVkLQ420d-2" edge="1">
          <mxGeometry width="50" height="50" relative="1" as="geometry">
            <mxPoint x="339" y="470" as="sourcePoint" />
            <mxPoint x="364" y="410" as="targetPoint" />
          </mxGeometry>
        </mxCell>
        <mxCell id="w6aNMnVi-DuYVkLQ420d-29" value="&lt;u&gt;회원&lt;/u&gt;&lt;div&gt;&lt;u&gt;번호&lt;/u&gt;&lt;/div&gt;" style="ellipse;whiteSpace=wrap;html=1;" parent="1" vertex="1">
          <mxGeometry x="10" y="450" width="50" height="45" as="geometry" />
        </mxCell>
        <mxCell id="w6aNMnVi-DuYVkLQ420d-30" value="로그인&lt;div&gt;아이디&lt;/div&gt;" style="ellipse;whiteSpace=wrap;html=1;" parent="1" vertex="1">
          <mxGeometry x="60" y="450" width="50" height="45" as="geometry" />
        </mxCell>
        <mxCell id="w6aNMnVi-DuYVkLQ420d-31" value="이름" style="ellipse;whiteSpace=wrap;html=1;" parent="1" vertex="1">
          <mxGeometry x="110" y="450" width="50" height="45" as="geometry" />
        </mxCell>
        <mxCell id="w6aNMnVi-DuYVkLQ420d-32" value="비밀번호" style="ellipse;whiteSpace=wrap;html=1;" parent="1" vertex="1">
          <mxGeometry x="10" y="495" width="50" height="45" as="geometry" />
        </mxCell>
        <mxCell id="w6aNMnVi-DuYVkLQ420d-33" value="주소" style="ellipse;whiteSpace=wrap;html=1;" parent="1" vertex="1">
          <mxGeometry x="60" y="495" width="50" height="45" as="geometry" />
        </mxCell>
        <mxCell id="w6aNMnVi-DuYVkLQ420d-34" value="휴대폰&lt;div&gt;번호&lt;/div&gt;" style="ellipse;whiteSpace=wrap;html=1;" parent="1" vertex="1">
          <mxGeometry x="110" y="495" width="50" height="45" as="geometry" />
        </mxCell>
        <mxCell id="w6aNMnVi-DuYVkLQ420d-35" value="이메일" style="ellipse;whiteSpace=wrap;html=1;" parent="1" vertex="1">
          <mxGeometry x="60" y="540" width="50" height="45" as="geometry" />
        </mxCell>
        <mxCell id="w6aNMnVi-DuYVkLQ420d-36" value="" style="endArrow=none;html=1;rounded=0;exitX=0.5;exitY=0;exitDx=0;exitDy=0;entryX=0.5;entryY=1;entryDx=0;entryDy=0;" parent="1" source="w6aNMnVi-DuYVkLQ420d-29" target="w6aNMnVi-DuYVkLQ420d-1" edge="1">
          <mxGeometry width="50" height="50" relative="1" as="geometry">
            <mxPoint x="390" y="510" as="sourcePoint" />
            <mxPoint x="440" y="460" as="targetPoint" />
          </mxGeometry>
        </mxCell>
        <mxCell id="w6aNMnVi-DuYVkLQ420d-37" value="" style="endArrow=none;html=1;rounded=0;exitX=0.5;exitY=0;exitDx=0;exitDy=0;entryX=0.5;entryY=1;entryDx=0;entryDy=0;" parent="1" source="w6aNMnVi-DuYVkLQ420d-30" target="w6aNMnVi-DuYVkLQ420d-1" edge="1">
          <mxGeometry width="50" height="50" relative="1" as="geometry">
            <mxPoint x="95" y="460" as="sourcePoint" />
            <mxPoint x="150" y="410" as="targetPoint" />
          </mxGeometry>
        </mxCell>
        <mxCell id="w6aNMnVi-DuYVkLQ420d-38" value="" style="endArrow=none;html=1;rounded=0;exitX=0.5;exitY=0;exitDx=0;exitDy=0;entryX=0.5;entryY=1;entryDx=0;entryDy=0;" parent="1" source="w6aNMnVi-DuYVkLQ420d-31" target="w6aNMnVi-DuYVkLQ420d-1" edge="1">
          <mxGeometry width="50" height="50" relative="1" as="geometry">
            <mxPoint x="145" y="460" as="sourcePoint" />
            <mxPoint x="150" y="410" as="targetPoint" />
          </mxGeometry>
        </mxCell>
        <mxCell id="w6aNMnVi-DuYVkLQ420d-39" value="&lt;u&gt;파일&lt;/u&gt;&lt;div&gt;&lt;u&gt;번호&lt;/u&gt;&lt;/div&gt;" style="ellipse;whiteSpace=wrap;html=1;aspect=fixed;" parent="1" vertex="1">
          <mxGeometry x="490" y="350" width="50" height="50" as="geometry" />
        </mxCell>
        <mxCell id="w6aNMnVi-DuYVkLQ420d-40" value="&lt;u&gt;파일&lt;/u&gt;&lt;div&gt;&lt;u&gt;번호&lt;/u&gt;&lt;/div&gt;" style="ellipse;whiteSpace=wrap;html=1;aspect=fixed;" parent="1" vertex="1">
          <mxGeometry x="495" y="500" width="50" height="50" as="geometry" />
        </mxCell>
        <mxCell id="w6aNMnVi-DuYVkLQ420d-41" value="" style="endArrow=none;html=1;rounded=0;entryX=0.5;entryY=0;entryDx=0;entryDy=0;exitX=0.5;exitY=1;exitDx=0;exitDy=0;" parent="1" source="w6aNMnVi-DuYVkLQ420d-4" target="w6aNMnVi-DuYVkLQ420d-39" edge="1">
          <mxGeometry width="50" height="50" relative="1" as="geometry">
            <mxPoint x="390" y="510" as="sourcePoint" />
            <mxPoint x="440" y="460" as="targetPoint" />
          </mxGeometry>
        </mxCell>
        <mxCell id="w6aNMnVi-DuYVkLQ420d-42" value="" style="endArrow=none;html=1;rounded=0;entryX=0.5;entryY=0;entryDx=0;entryDy=0;exitX=0.5;exitY=1;exitDx=0;exitDy=0;" parent="1" source="w6aNMnVi-DuYVkLQ420d-3" target="w6aNMnVi-DuYVkLQ420d-40" edge="1">
          <mxGeometry width="50" height="50" relative="1" as="geometry">
            <mxPoint x="580" y="340" as="sourcePoint" />
            <mxPoint x="505" y="360" as="targetPoint" />
          </mxGeometry>
        </mxCell>
        <mxCell id="w6aNMnVi-DuYVkLQ420d-43" value="좋아요" style="ellipse;whiteSpace=wrap;html=1;" parent="1" vertex="1">
          <mxGeometry x="380" y="510" width="50" height="50" as="geometry" />
        </mxCell>
        <mxCell id="w6aNMnVi-DuYVkLQ420d-44" value="게시글&lt;div&gt;생성&lt;/div&gt;&lt;div&gt;시간&lt;/div&gt;" style="ellipse;whiteSpace=wrap;html=1;" parent="1" vertex="1">
          <mxGeometry x="330" y="510" width="50" height="50" as="geometry" />
        </mxCell>
        <mxCell id="w6aNMnVi-DuYVkLQ420d-46" value="댓글" style="rhombus;whiteSpace=wrap;html=1;" parent="1" vertex="1">
          <mxGeometry x="180" y="240" width="80" height="80" as="geometry" />
        </mxCell>
        <mxCell id="w6aNMnVi-DuYVkLQ420d-51" value="" style="edgeStyle=entityRelationEdgeStyle;fontSize=12;html=1;endArrow=ERmany;rounded=0;entryX=1;entryY=0.25;entryDx=0;entryDy=0;exitX=0;exitY=0.5;exitDx=0;exitDy=0;" parent="1" source="w6aNMnVi-DuYVkLQ420d-46" target="w6aNMnVi-DuYVkLQ420d-1" edge="1">
          <mxGeometry width="100" height="100" relative="1" as="geometry">
            <mxPoint x="360" y="540" as="sourcePoint" />
            <mxPoint x="460" y="440" as="targetPoint" />
          </mxGeometry>
        </mxCell>
        <mxCell id="w6aNMnVi-DuYVkLQ420d-52" value="" style="edgeStyle=entityRelationEdgeStyle;fontSize=12;html=1;endArrow=ERmany;rounded=0;entryX=0;entryY=0.25;entryDx=0;entryDy=0;exitX=1;exitY=0.5;exitDx=0;exitDy=0;" parent="1" source="w6aNMnVi-DuYVkLQ420d-46" target="w6aNMnVi-DuYVkLQ420d-2" edge="1">
          <mxGeometry width="100" height="100" relative="1" as="geometry">
            <mxPoint x="180" y="280" as="sourcePoint" />
            <mxPoint x="150" y="365" as="targetPoint" />
          </mxGeometry>
        </mxCell>
        <mxCell id="w6aNMnVi-DuYVkLQ420d-53" value="&lt;u&gt;댓글&lt;/u&gt;&lt;div&gt;&lt;u&gt;번호&lt;/u&gt;&lt;/div&gt;" style="ellipse;whiteSpace=wrap;html=1;" parent="1" vertex="1">
          <mxGeometry x="120" y="140" width="50" height="50" as="geometry" />
        </mxCell>
        <mxCell id="w6aNMnVi-DuYVkLQ420d-55" value="댓글&lt;div&gt;본문&lt;/div&gt;" style="ellipse;whiteSpace=wrap;html=1;" parent="1" vertex="1">
          <mxGeometry x="170" y="140" width="50" height="50" as="geometry" />
        </mxCell>
        <mxCell id="w6aNMnVi-DuYVkLQ420d-56" value="좋아요&lt;div&gt;개수&lt;/div&gt;" style="ellipse;whiteSpace=wrap;html=1;fontStyle=1" parent="1" vertex="1">
          <mxGeometry x="220" y="140" width="50" height="50" as="geometry" />
        </mxCell>
        <mxCell id="w6aNMnVi-DuYVkLQ420d-57" value="싫어요&lt;div&gt;개수&lt;/div&gt;" style="ellipse;whiteSpace=wrap;html=1;fontStyle=1" parent="1" vertex="1">
          <mxGeometry x="270" y="140" width="50" height="50" as="geometry" />
        </mxCell>
        <mxCell id="w6aNMnVi-DuYVkLQ420d-58" value="" style="endArrow=none;html=1;rounded=0;entryX=0.5;entryY=1;entryDx=0;entryDy=0;exitX=0.5;exitY=0;exitDx=0;exitDy=0;" parent="1" source="w6aNMnVi-DuYVkLQ420d-46" target="w6aNMnVi-DuYVkLQ420d-53" edge="1">
          <mxGeometry width="50" height="50" relative="1" as="geometry">
            <mxPoint x="390" y="510" as="sourcePoint" />
            <mxPoint x="440" y="460" as="targetPoint" />
          </mxGeometry>
        </mxCell>
        <mxCell id="w6aNMnVi-DuYVkLQ420d-59" value="" style="endArrow=none;html=1;rounded=0;entryX=0.5;entryY=1;entryDx=0;entryDy=0;exitX=0.5;exitY=0;exitDx=0;exitDy=0;" parent="1" source="w6aNMnVi-DuYVkLQ420d-46" target="w6aNMnVi-DuYVkLQ420d-55" edge="1">
          <mxGeometry width="50" height="50" relative="1" as="geometry">
            <mxPoint x="230" y="250" as="sourcePoint" />
            <mxPoint x="155" y="200" as="targetPoint" />
          </mxGeometry>
        </mxCell>
        <mxCell id="w6aNMnVi-DuYVkLQ420d-60" value="" style="endArrow=none;html=1;rounded=0;entryX=0.5;entryY=1;entryDx=0;entryDy=0;exitX=0.5;exitY=0;exitDx=0;exitDy=0;" parent="1" source="w6aNMnVi-DuYVkLQ420d-46" target="w6aNMnVi-DuYVkLQ420d-56" edge="1">
          <mxGeometry width="50" height="50" relative="1" as="geometry">
            <mxPoint x="230" y="250" as="sourcePoint" />
            <mxPoint x="205" y="200" as="targetPoint" />
          </mxGeometry>
        </mxCell>
        <mxCell id="w6aNMnVi-DuYVkLQ420d-61" value="" style="endArrow=none;html=1;rounded=0;entryX=0.5;entryY=1;entryDx=0;entryDy=0;exitX=0.5;exitY=0;exitDx=0;exitDy=0;" parent="1" source="w6aNMnVi-DuYVkLQ420d-46" target="w6aNMnVi-DuYVkLQ420d-57" edge="1">
          <mxGeometry width="50" height="50" relative="1" as="geometry">
            <mxPoint x="240" y="260" as="sourcePoint" />
            <mxPoint x="215" y="210" as="targetPoint" />
          </mxGeometry>
        </mxCell>
        <mxCell id="w6aNMnVi-DuYVkLQ420d-62" value="싫어요" style="ellipse;whiteSpace=wrap;html=1;" parent="1" vertex="1">
          <mxGeometry x="330" y="560" width="50" height="50" as="geometry" />
        </mxCell>
        <mxCell id="w6aNMnVi-DuYVkLQ420d-63" value="댓글&lt;div&gt;생성시간&lt;/div&gt;" style="ellipse;whiteSpace=wrap;html=1;" parent="1" vertex="1">
          <mxGeometry x="190" y="90" width="50" height="50" as="geometry" />
        </mxCell>
      </root>
    </mxGraphModel>
  </diagram>
</mxfile>
